<?xml version="1.0" encoding="utf-8"?>
<!-- Generator: Adobe Illustrator 26.0.2, SVG Export Plug-In . SVG Version: 6.00 Build 0)  -->
<svg version="1.1" id="Layer_1" xmlns="http://www.w3.org/2000/svg" xmlns:xlink="http://www.w3.org/1999/xlink" x="0px" y="0px"
	 viewBox="0 0 1000 1000" style="enable-background:new 0 0 1000 1000;" xml:space="preserve">
<style type="text/css">
	.st0{fill:#FFFFFE;}
	.st1{fill:#FFFFFF;}
	.st2{font-family:'Dopestyle';}
	.st3{font-size:76.6291px;}
	.st4{fill:none;stroke:#000000;stroke-width:14;stroke-miterlimit:10;}
</style>
<g>
	<path class="st0" d="M417.1,566.5l-10.6-45h7l8.8,39h1.5l10.5-38.1h7.3l10.5,38.1h1.5l8.8-39h7l-10.6,45h-11.6l-9.4-34.8l-9.3,34.8
		H417.1z"/>
	<path class="st0" d="M488.7,567.4c-4.1,0-7.3-1.2-9.5-3.5c-2.2-2.3-3.2-5.8-3.2-10.3c0-2.9,0.5-5.3,1.5-7.2c1-1.9,2.6-3.3,4.6-4.3
		c2.1-1,4.6-1.6,7.7-1.8l13.9-1.4v-3.9c0-3.1-0.7-5.2-2-6.5s-3.3-1.9-6-1.9c-1.5,0-3.3,0.1-5.4,0.2c-2.1,0.1-4.1,0.3-6.2,0.5
		c-2,0.2-3.8,0.4-5.4,0.5l-0.4-5.3c1.4-0.3,3.2-0.6,5.2-0.9c2-0.3,4.2-0.6,6.4-0.8c2.2-0.2,4.3-0.3,6.1-0.3c3.4,0,6.2,0.5,8.4,1.6
		c2.2,1.1,3.7,2.6,4.7,4.8c1,2.1,1.5,4.8,1.5,8.1v22.8c0.1,1.3,0.6,2.3,1.6,2.9c0.9,0.6,2.1,1,3.6,1.2l-0.3,5.5
		c-0.8,0-1.7,0-2.4-0.1c-0.8-0.1-1.5-0.2-2.2-0.3c-0.7-0.2-1.4-0.3-2-0.5c-0.8-0.3-1.5-0.7-2.2-1.1c-0.7-0.4-1.4-0.9-2-1.5
		c-1.1,0.5-2.6,1-4.4,1.5c-1.8,0.5-3.7,1-5.7,1.4C492.7,567.2,490.7,567.4,488.7,567.4z M489.8,561.5c1.6,0,3.3-0.1,5-0.5
		c1.7-0.3,3.4-0.7,5-1.1c1.6-0.4,2.8-0.8,3.9-1.2v-14.7l-13.1,1.3c-2.7,0.2-4.6,1-5.8,2.3c-1.2,1.3-1.8,3.2-1.8,5.7
		c0,2.5,0.6,4.5,1.7,5.9C485.9,560.8,487.6,561.5,489.8,561.5z"/>
	<path class="st0" d="M524,566.5V502h6.9v22c1.1-0.5,2.4-1,3.9-1.5c1.5-0.5,3.2-0.9,4.9-1.3c1.7-0.4,3.4-0.5,4.9-0.5
		c3.1,0,5.7,0.4,7.7,1.2c2,0.8,3.5,2.1,4.6,3.9c1.1,1.8,1.9,4,2.3,6.8c0.4,2.8,0.6,6.2,0.6,10.1v23.8h-7v-23.6c0-3.9-0.2-7-0.7-9.4
		c-0.5-2.3-1.3-4-2.7-5.1c-1.3-1-3.4-1.6-6.1-1.6c-1.5,0-3,0.1-4.6,0.4c-1.6,0.3-3.1,0.6-4.5,1c-1.4,0.4-2.5,0.8-3.4,1.2v37H524z"/>
	<path class="st0" d="M582.3,567.4c-4.1,0-7.3-1.2-9.5-3.5c-2.2-2.3-3.2-5.8-3.2-10.3c0-2.9,0.5-5.3,1.5-7.2c1-1.9,2.6-3.3,4.6-4.3
		c2.1-1,4.6-1.6,7.7-1.8l13.9-1.4v-3.9c0-3.1-0.7-5.2-2-6.5s-3.3-1.9-6-1.9c-1.5,0-3.3,0.1-5.4,0.2c-2.1,0.1-4.1,0.3-6.2,0.5
		c-2,0.2-3.8,0.4-5.4,0.5l-0.4-5.3c1.4-0.3,3.2-0.6,5.2-0.9c2-0.3,4.2-0.6,6.4-0.8c2.2-0.2,4.3-0.3,6.1-0.3c3.4,0,6.2,0.5,8.4,1.6
		c2.2,1.1,3.7,2.6,4.7,4.8c1,2.1,1.5,4.8,1.5,8.1v22.8c0.1,1.3,0.6,2.3,1.6,2.9c0.9,0.6,2.1,1,3.6,1.2l-0.3,5.5
		c-0.8,0-1.7,0-2.4-0.1c-0.8-0.1-1.5-0.2-2.2-0.3c-0.7-0.2-1.4-0.3-2-0.5c-0.8-0.3-1.5-0.7-2.2-1.1c-0.7-0.4-1.4-0.9-2-1.5
		c-1.1,0.5-2.6,1-4.4,1.5c-1.8,0.5-3.7,1-5.7,1.4C586.3,567.2,584.3,567.4,582.3,567.4z M583.4,561.5c1.6,0,3.3-0.1,5-0.5
		c1.7-0.3,3.4-0.7,5-1.1c1.6-0.4,2.8-0.8,3.9-1.2v-14.7l-13.1,1.3c-2.7,0.2-4.6,1-5.8,2.3c-1.2,1.3-1.8,3.2-1.8,5.7
		c0,2.5,0.6,4.5,1.7,5.9C579.5,560.8,581.2,561.5,583.4,561.5z"/>
	<path class="st0" d="M609.6,586.6l-2.8-5.4c2.3-1.3,4.1-2.5,5.5-3.6c1.4-1.1,2.5-2.1,3.2-3.2c0.7-1.1,1.3-2.3,1.6-3.8
		c0.3-1.4,0.5-3.2,0.5-5.4v-43.7h7v43.8c0,2.8-0.2,5.1-0.7,7.2c-0.5,2-1.2,3.8-2.3,5.4c-1.1,1.6-2.6,3-4.6,4.4
		C615.1,583.6,612.6,585,609.6,586.6z M617.6,511.6v-8.1h7v8.1H617.6z"/>
</g>
<text transform="matrix(0.9093 0 0 1 466.0714 453.2177)" class="st1 st2 st3">W</text>
<path class="st4" d="M630.5,383.8"/>
<g>
	<path class="st1" d="M572.1,398.4c23.4,49-22.3,102-74.4,87.7c-32.6-8.7-53.3-43.3-45.5-76.1c5.2-24,25.2-43.7,49.2-48.4
		c23.5-5.1,49.5,4.9,63.2,24.5c-19.6-24.7-57.8-30.4-83.3-12c-33.4,23.1-34.8,72.6-2.5,97.3C529.8,508.8,595.2,456.9,572.1,398.4
		L572.1,398.4z"/>
</g>
</svg>
